# xmcd CD database file
# Copyright (C) 1997 Ti Kan
#
# Track frame offsets:
# 150
# 11645
# 28832
# 37392
# 52012
# 68802
# 82337
# 90825
# 102307
# 118212
# 134125
# 142355
# 155177
#
# Disc length: 2184 seconds
#
# Revision: 1
# Processed by: cddbd v1.4b41PL1 Copyright (c) Steve Scherf et al.
# Submitted via: CDWizzard Release:4.35
#
DISCID=ce08860d
DTITLE=Billie Holiday - Billie Holiday, Radio and TV
DYEAR=1900
DGENRE=
TTITLE0=God Bless The Child
TTITLE1=I Cover the Waterfront
TTITLE2=Lover Come Back to Me
TTITLE3=All of Me
TTITLE4=Billies Blues
TTITLE5=My Man
TTITLE6=Them There Eyes
TTITLE7=Lover Man
TTITLE8=Stormy Wheather
TTITLE9=Willow Weep For Me
TTITLE10=I Only Have Eyes For You
TTITLE11=My Man
TTITLE12=Please Don't Talk About Me When I'm Gone
EXTD=Original Radio and TV Broadcasts (1953-56)
EXTT0=
EXTT1=
EXTT2=
EXTT3=
EXTT4=
EXTT5=
EXTT6=
EXTT7=
EXTT8=
EXTT9=
EXTT10=
EXTT11=
EXTT12=
PLAYORDER=
